<?xml version="1.0" encoding="utf-8"?>
<svg viewBox="0 0 16 16" fill="currentColor" xmlns="http://www.w3.org/2000/svg">
  <path d="M 4.363 13.815 C 4.363 15.495 2.546 16.544 1.091 15.704 C 0.416 15.314 0 14.594 0 13.815 C 0 12.136 1.818 11.087 3.273 11.926 C 3.948 12.315 4.363 13.036 4.363 13.815 M 0 1.455 C 0 0.651 0.651 0 1.455 0 C 9.488 0 16 6.51 16 14.542 C 16 15.662 14.787 16.361 13.818 15.802 C 13.368 15.543 13.09 15.062 13.09 14.542 C 13.09 8.117 7.881 2.908 1.455 2.908 C 0.651 2.908 0 2.258 0 1.455 M 0 7.272 C 0 6.468 0.651 5.817 1.455 5.817 C 6.275 5.817 10.182 9.723 10.182 14.542 C 10.182 15.662 8.969 16.361 8 15.802 C 7.55 15.543 7.273 15.062 7.273 14.542 C 7.273 11.329 4.668 8.725 1.455 8.725 C 0.651 8.725 0 8.075 0 7.272" style="fill: rgb(0, 0, 0);"/>
</svg>